<?xml version="1.0" encoding="utf-8"?>
<!-- Generator: Adobe Illustrator 24.0.0, SVG Export Plug-In . SVG Version: 6.00 Build 0)  -->
<svg version="1.1" id="Layer_1" xmlns="http://www.w3.org/2000/svg" xmlns:xlink="http://www.w3.org/1999/xlink" x="0px" y="0px"
	 viewBox="0 0 100 100" style="enable-background:new 0 0 100 100;" xml:space="preserve">
<style type="text/css">
	.st0{fill:#3355A2;}
	.st1{fill:#FFFFFF;}
</style>
<path class="st0" d="M100,50c0-27.61-22.39-50-50-50S0,22.39,0,50c0,23.75,16.56,43.61,38.76,48.71V58.75H24.62V45.8h14.14v-5.71
	c0-6.69,1.57-11.76,4.7-15.23c3.22-3.55,7.91-5.33,14.09-5.33h2.03c1.52,0.09,2.92,0.13,4.19,0.13c2.12,0.09,4.65,0.13,7.62,0.13
	v13.84L61.23,34c-2.12,0-3.47,0.42-4.06,1.27c-0.59,0.85-0.89,2.75-0.89,5.71v4.82h15.11v12.95H56.28v40.84
	C80.93,96.5,100,75.49,100,50z"/>
<path class="st1" d="M56.28,100v-0.41C54.22,99.85,52.13,100,50,100H56.28z"/>
<path class="st1" d="M38.76,100H50c-3.87,0-7.63-0.45-11.24-1.29V100z"/>
</svg>
